<svg role="img" aria-label="Herdr logo" xmlns="http://www.w3.org/2000/svg" width="512" height="512" viewBox="0 0 512 512">
  <rect width="512" height="512" rx="72" fill="#d9dad8"/>
  <g fill="#303438" transform="translate(0 512) scale(.1 -.1)">
    <path d="M2794 3710c-129-33-299-135-359-214-21-28-26-42-21-63 9-38 154-178 199-192 32-11 41-9 104 23 171 86 354 70 475-43 150-138 150-379 0-511-107-95-278-94-386 2l-46 40-11-29c-16-40-14-122 4-164 60-144 264-222 452-174 360 92 559 494 430 868-36 103-81 173-175 267-71 72-100 93-180 132-52 26-127 54-167 62-96 21-230 20-319-4zM2212 3388c-159-22-390-122-559-241-299-210-585-600-609-828-12-118 40-251 125-318 96-76 178-98 426-116 110-8 224-21 254-29 125-34 230-115 272-211 11-24 24-81 30-127 20-170 65-271 166-374l63-67c-12-30-22-57-22-57-29-76-37-259-14-350 42-170 158-318 311-397 44-23 98-46 120-52l51-18c5-5 15-48 22-96l17-97h2255v3169l-55-19c-84-29-143-68-232-154l-83-78-54 49c-111 102-233 151-391 160-113 6-199-10-298-54l-60-27-26 34c-37 51-120 134-127 128-3-4 0-34 7-67 17-89 7-268-21-356-103-328-377-545-688-545-161 0-273 41-373 137-37 35-66 75-85 116-79 173-8 407 124 407 44 0 68-14 117-66 74-78 167-82 238-9 60 62 72 147 33 231-42 90-120 130-238 122-50-4-85-14-131-37-89-45-122-52-176-40-92 20-262 163-302 253l-22 45-65-11zm-256-505c115-88 129-102 132-131 2-18-2-40-9-49-7-8-69-55-138-105-103-73-130-88-151-83-35 8-51 34-48 74 3 31 12 42 83 92l82 66c1 4-30 31-69 58l-85 63c-18 19-16 72 4 94 32 35 63 23 199-79zm528-88c23-24 28-52 14-82l-13-28-141-3c-130-2-142-1-158 17-23 26-24 66-1 91 16 18 32 20 151 20 105 0 136-3 148-15z"/>
  </g>
</svg>
